<!--?xml version="1.0" encoding="utf-8"?-->
<!-- Generator: Adobe Illustrator 15.1.0, SVG Export Plug-In . SVG Version: 6.00 Build 0)  -->

<svg version="1.1" id="_x32_" xmlns="http://www.w3.org/2000/svg" xmlns:xlink="http://www.w3.org/1999/xlink" x="0px" y="0px" width="512px" height="512px" viewBox="0 0 512 512" style="width: 128px; height: 128px; opacity: 1;" xml:space="preserve">
<style type="text/css">

	.st0{fill:#4B4B4B;}

</style>
<g>
	<path class="st0" d="M199.156,397.75c0,13.75,42.578,12.125,59.625,12.125c17.016,0,59.609,1.625,59.609-12.125
		c0-13.766-30.734-23.469-59.609-23.469C229.875,374.281,199.156,383.984,199.156,397.75z" style="fill: rgb(75, 75, 75);"></path>
	<polygon class="st0" points="271.484,333.828 253.594,304.516 235.703,333.828 253.594,336.875 	" style="fill: rgb(75, 75, 75);"></polygon>
	<path class="st0" d="M231.125,229.781c-6.594-18.422-75.969-30.5-97.109-37.969c-17.984-6.313-20.375-1.125-20.375,7.5
		c0,0-6.594,66.688,43.75,80.484C207.75,293.578,237.656,248,231.125,229.781z" style="fill: rgb(75, 75, 75);"></path>
	<path class="st0" d="M378,191.813c-21.156,7.469-90.531,19.547-97.125,37.969c-6.531,18.219,23.375,63.797,73.75,50.016
		c50.344-13.797,43.75-80.484,43.75-80.484C398.375,190.688,395.969,185.5,378,191.813z" style="fill: rgb(75, 75, 75);"></path>
	<path class="st0" d="M303.563,0C277.891,19.156,256,63.781,256,63.781S234.125,19.156,208.453,0
		C92.125,22.203,31.969,125.063,31.969,218c0,88.547,16.813,167.781,56.406,216.75C126.125,481.375,182.797,512,256,512
		c73.219,0,129.906-30.625,167.641-77.25c39.609-48.969,56.391-128.203,56.391-216.75C480.031,125.063,419.875,22.203,303.563,0z
		 M234.484,120.406l18.875-20.063l18.859,20.063c0,0-1.172-93.203,74.313-64.891c-8.25,2.359-27.125,16.516-27.125,16.516
		c-15.344,9.438-29.484,58.969-25.953,84.938c-7.078-2.344-40.094-28.313-40.094-28.313s-33.031,25.969-40.109,28.313
		c3.547-25.969-10.609-75.5-25.938-84.938c0,0-18.891-14.156-27.141-16.516C235.672,27.203,234.484,120.406,234.484,120.406z
		 M392.031,358.688c-2.672-39.813-2.672-39.813-2.672-39.813l-31.844,23.891l1.203-22.266c-30.5,7.594-54.297-2.813-72.75-12.313
		l24.453,45.125c25.859,10.719,45.047,28.938,45.047,51.719c0,10.75-5.469,25-31.422,31.875c-12.172,3.219-26.328,4.25-38.984,4.563
		C266.469,451.234,256,486.031,256,486.031s-10.438-34.797-29.031-44.563c-12.672-0.313-26.828-1.344-39-4.563
		c-25.969-6.859-31.422-21.125-31.422-31.875c0-23.219,19.906-41.703,46.516-52.344l24.547-45.328
		c-18.656,9.688-42.922,20.922-74.313,13.125l1.203,22.281l-31.844-23.891c0,0,0,0-2.656,39.813
		c-25.75-15.438-42.531-66.422-43.578-130c-2.594-18.188-1.672-35.969,1.484-50.375c4.219-35.844,17.781-69.578,36.797-92.375
		c-5.047,20.141,28.766,62.859,49.359,75.188c26.984,9.719,58.688,20.141,91.938,20.141c33.281,0,64.984-10.422,91.969-20.141
		c20.594-12.359,54.406-55.047,49.359-75.188c19.016,22.844,32.594,56.594,36.797,92.469c3.125,14.375,4.047,32.094,1.469,50.203
		C434.578,292.219,417.781,343.25,392.031,358.688z" style="fill: rgb(75, 75, 75);"></path>
</g>
</svg>
