<!--?xml version="1.0" encoding="utf-8"?-->
<!-- Generator: Adobe Illustrator 18.1.1, SVG Export Plug-In . SVG Version: 6.00 Build 0)  -->

<svg version="1.1" id="_x32_" xmlns="http://www.w3.org/2000/svg" xmlns:xlink="http://www.w3.org/1999/xlink" x="0px" y="0px" viewBox="0 0 512 512" style="width: 256px; height: 256px; opacity: 1;" xml:space="preserve">
<style type="text/css">
	.st0{fill:#4B4B4B;}
</style>
<g>
	<path class="st0" d="M368.306,422.737l28.896-62.306c1.312-2.824,1.445-6.054,0.369-8.972c-1.068-2.917-3.258-5.287-6.082-6.6
		l-4.92-2.266l8.386-52.703l5.987,1.199c15.572-1.199,25.157-10.784,28.755-27.555c3.588-16.772,9.575-35.932,16.762-68.276
		c7.195-32.343-3.589-53.902-28.746-79.059C410.526,69.474,370.997,0,255.998,0C141.007,0,101.477,69.474,94.291,116.199
		c-25.158,25.157-35.941,46.716-28.755,79.059c7.186,32.344,13.174,51.504,16.772,68.276c3.597,16.771,13.173,26.356,28.745,27.555
		l5.996-1.199l8.386,52.703l-4.92,2.266c-2.824,1.313-5.014,3.683-6.081,6.6c-1.076,2.918-0.944,6.148,0.368,8.972l28.887,62.306
		c2.55,5.496,8.867,8.14,14.57,6.101l6.705-2.39c0,0,26.347,37.132,91.034,37.132c64.686,0,91.042-37.132,91.042-37.132l6.705,2.39
		C359.448,430.877,365.757,428.234,368.306,422.737z M142.782,264.497c-20.134-1.936-36.688-16.686-40.946-36.46l-8.055-37.49
		c-1.861-8.678,0.349-17.725,5.986-24.562c5.647-6.846,14.108-10.737,22.976-10.548l86.302,1.746
		c8.366,0.17,16.223,4.08,21.408,10.662c5.174,6.582,7.13,15.138,5.335,23.315l-11.426,51.825
		c-3.616,16.422-18.915,27.556-35.648,25.94L142.782,264.497z M255.998,432.436c-39.69,0-71.873-32.183-71.873-71.872
		c0-39.69,32.182-71.874,71.873-71.874c39.699,0,71.872,32.184,71.872,71.874C327.87,400.253,295.696,432.436,255.998,432.436z
		 M323.29,268.926c-16.734,1.615-32.041-9.519-35.658-25.94l-11.417-51.825c-1.803-8.178,0.16-16.734,5.335-23.315
		c5.185-6.582,13.042-10.492,21.408-10.662l86.292-1.746c8.868-0.189,17.338,3.702,22.976,10.548
		c5.647,6.837,7.857,15.884,5.988,24.562l-8.055,37.49c-4.25,19.774-20.814,34.524-40.936,36.46L323.29,268.926z" style="fill: rgb(75, 75, 75);"></path>
	<path class="st0" d="M255.998,315.641c-24.808,0-44.922,20.114-44.922,44.922c0,24.807,20.113,44.922,44.922,44.922
		c24.817,0,44.921-20.114,44.921-44.922C300.919,335.756,280.814,315.641,255.998,315.641z" style="fill: rgb(75, 75, 75);"></path>
	<path class="st0" d="M97.407,347.692c-5.865-13.07-21.2-18.906-34.27-13.05l-44.931,20.17c-13.059,5.855-18.905,21.19-13.041,34.26
		l48.274,107.615c5.855,13.06,21.2,18.896,34.26,13.032l44.94-20.152c13.06-5.865,18.896-21.2,13.042-34.26L97.407,347.692z" style="fill: rgb(75, 75, 75);"></path>
	<path class="st0" d="M493.798,354.812l-44.941-20.17c-13.06-5.855-28.396-0.02-34.26,13.05l-48.274,107.615
		c-5.864,13.06-0.018,28.396,13.042,34.26l44.94,20.152c13.06,5.864,28.397,0.028,34.26-13.032l48.274-107.615
		C512.694,376.002,506.858,360.667,493.798,354.812z" style="fill: rgb(75, 75, 75);"></path>
	<path class="st0" d="M116.558,189.272c1.2,4.788,4.788,22.758,4.788,22.758l40.729-40.729c0,0-11.974,0-31.144,0
		C118.891,171.301,115.358,184.475,116.558,189.272z" style="fill: rgb(75, 75, 75);"></path>
	<path class="st0" d="M297.434,189.272c1.199,4.788,4.797,22.758,4.797,22.758l40.729-40.729c0,0-11.983,0-31.144,0
		C299.776,171.301,296.235,184.475,297.434,189.272z" style="fill: rgb(75, 75, 75);"></path>
</g>
</svg>
